<?xml version="1.0" encoding="UTF-8" standalone="no"?><!DOCTYPE svg PUBLIC "-//W3C//DTD SVG 1.1//EN" "http://www.w3.org/Graphics/SVG/1.1/DTD/svg11.dtd"><!-- Generated by graphviz version 2.40.1 (20161225.0304)
 --><!-- Title: G Pages: 1 --><svg xmlns="http://www.w3.org/2000/svg" xmlns:xlink="http://www.w3.org/1999/xlink" width="1056pt" height="1052pt" viewBox="0.00 0.00 1055.60 1052.00">
<g id="graph0" class="graph" transform="scale(1 1) rotate(0) translate(4 1048)">
<title>G</title>
<polygon fill="#ffffff" stroke="transparent" points="-4,4 -4,-1048 1051.6,-1048 1051.6,4 -4,4"/>
<!-- 0 -->
<g id="node1" class="node">
<title>0</title>
<ellipse fill="none" stroke="#000000" cx="27" cy="-1026" rx="27" ry="18"/>
<text text-anchor="middle" x="27" y="-1021.8" font-family="Times,serif" font-size="14.00" fill="#000000">0</text>
</g>
<!-- 4 -->
<g id="node2" class="node">
<title>4</title>
<ellipse fill="none" stroke="#000000" cx="113.4" cy="-961.2" rx="27" ry="18"/>
<text text-anchor="middle" x="113.4" y="-957" font-family="Times,serif" font-size="14.00" fill="#000000">4</text>
</g>
<!-- 0&#45;&#45;4 -->
<g id="edge1" class="edge">
<title>0--4</title>
<path fill="none" stroke="#000000" d="M45.3232,-1012.2576C60.0847,-1001.1865 80.7246,-985.7066 95.3995,-974.7004"/>
<text text-anchor="middle" x="63.3613" y="-997.679" font-family="Times,serif" font-size="14.00" fill="#000000">65</text>
</g>
<!-- 9 -->
<g id="node33" class="node">
<title>9</title>
<ellipse fill="none" stroke="#000000" cx="84.6" cy="-759.6" rx="27" ry="18"/>
<text text-anchor="middle" x="84.6" y="-755.4" font-family="Times,serif" font-size="14.00" fill="#000000">9</text>
</g>
<!-- 4&#45;&#45;9 -->
<g id="edge52" class="edge">
<title>4--9</title>
<path fill="none" stroke="#000000" d="M110.7934,-942.9538C105.3102,-904.5714 92.6398,-815.8785 87.18,-777.6597"/>
<text text-anchor="middle" x="88.4867" y="-864.5067" font-family="Times,serif" font-size="14.00" fill="#000000">208</text>
</g>
<!-- 1 -->
<g id="node3" class="node">
<title>1</title>
<ellipse fill="none" stroke="#000000" cx="329.4" cy="-975.6" rx="27" ry="18"/>
<text text-anchor="middle" x="329.4" y="-971.4" font-family="Times,serif" font-size="14.00" fill="#000000">1</text>
</g>
<!-- 1&#45;&#45;4 -->
<g id="edge2" class="edge">
<title>1--4</title>
<path fill="none" stroke="#000000" d="M302.4802,-973.8053C260.9758,-971.0384 181.8228,-965.7615 140.319,-962.9946"/>
<text text-anchor="middle" x="210.8996" y="-972.6" font-family="Times,serif" font-size="14.00" fill="#000000">228</text>
</g>
<!-- 2 -->
<g id="node4" class="node">
<title>2</title>
<ellipse fill="none" stroke="#000000" cx="502.2" cy="-975.6" rx="27" ry="18"/>
<text text-anchor="middle" x="502.2" y="-971.4" font-family="Times,serif" font-size="14.00" fill="#000000">2</text>
</g>
<!-- 1&#45;&#45;2 -->
<g id="edge3" class="edge">
<title>1--2</title>
<path fill="none" stroke="#000000" d="M356.4,-975.6C388.7684,-975.6 442.6946,-975.6 475.105,-975.6"/>
<text text-anchor="middle" x="405.2525" y="-979.8" font-family="Times,serif" font-size="14.00" fill="#000000">136</text>
</g>
<!-- 6 -->
<g id="node28" class="node">
<title>6</title>
<ellipse fill="none" stroke="#000000" cx="329.4" cy="-802.8" rx="27" ry="18"/>
<text text-anchor="middle" x="329.4" y="-798.6" font-family="Times,serif" font-size="14.00" fill="#000000">6</text>
</g>
<!-- 1&#45;&#45;6 -->
<g id="edge42" class="edge">
<title>1--6</title>
<path fill="none" stroke="#000000" d="M329.4,-957.434C329.4,-924.2463 329.4,-854.1813 329.4,-820.9819"/>
<text text-anchor="middle" x="318.9" y="-893.4079" font-family="Times,serif" font-size="14.00" fill="#000000">140</text>
</g>
<!-- 5 -->
<g id="node5" class="node">
<title>5</title>
<ellipse fill="none" stroke="#000000" cx="631.8" cy="-903.6" rx="27" ry="18"/>
<text text-anchor="middle" x="631.8" y="-899.4" font-family="Times,serif" font-size="14.00" fill="#000000">5</text>
</g>
<!-- 2&#45;&#45;5 -->
<g id="edge4" class="edge">
<title>2--5</title>
<path fill="none" stroke="#000000" d="M523.0225,-964.0319C547.2073,-950.596 586.8665,-928.563 611.0292,-915.1393"/>
<text text-anchor="middle" x="556.5258" y="-943.7856" font-family="Times,serif" font-size="14.00" fill="#000000">192</text>
</g>
<!-- 7 -->
<g id="node23" class="node">
<title>7</title>
<ellipse fill="none" stroke="#000000" cx="473.4" cy="-802.8" rx="27" ry="18"/>
<text text-anchor="middle" x="473.4" y="-798.6" font-family="Times,serif" font-size="14.00" fill="#000000">7</text>
</g>
<!-- 2&#45;&#45;7 -->
<g id="edge32" class="edge">
<title>2--7</title>
<path fill="none" stroke="#000000" d="M499.1723,-957.434C493.6266,-924.1597 481.9025,-853.8152 476.3871,-820.7226"/>
<text text-anchor="middle" x="477.2797" y="-893.2783" font-family="Times,serif" font-size="14.00" fill="#000000">144</text>
</g>
<!-- 11 -->
<g id="node18" class="node">
<title>11</title>
<ellipse fill="none" stroke="#000000" cx="617.4" cy="-730.8" rx="27" ry="18"/>
<text text-anchor="middle" x="617.4" y="-726.6" font-family="Times,serif" font-size="14.00" fill="#000000">11</text>
</g>
<!-- 5&#45;&#45;11 -->
<g id="edge22" class="edge">
<title>5--11</title>
<path fill="none" stroke="#000000" d="M630.2862,-885.434C627.5205,-852.2463 621.6818,-782.1813 618.9152,-748.9819"/>
<text text-anchor="middle" x="614.1007" y="-821.4079" font-family="Times,serif" font-size="14.00" fill="#000000">158</text>
</g>
<!-- 3 -->
<g id="node6" class="node">
<title>3</title>
<ellipse fill="none" stroke="#000000" cx="747" cy="-975.6" rx="27" ry="18"/>
<text text-anchor="middle" x="747" y="-971.4" font-family="Times,serif" font-size="14.00" fill="#000000">3</text>
</g>
<!-- 3&#45;&#45;5 -->
<g id="edge5" class="edge">
<title>3--5</title>
<path fill="none" stroke="#000000" d="M727.1964,-963.2227C706.0959,-950.0349 672.8797,-929.2748 651.7307,-916.0567"/>
<text text-anchor="middle" x="678.9636" y="-943.8397" font-family="Times,serif" font-size="14.00" fill="#000000">150</text>
</g>
<!-- 8 -->
<g id="node7" class="node">
<title>8</title>
<ellipse fill="none" stroke="#000000" cx="991.8" cy="-802.8" rx="27" ry="18"/>
<text text-anchor="middle" x="991.8" y="-798.6" font-family="Times,serif" font-size="14.00" fill="#000000">8</text>
</g>
<!-- 3&#45;&#45;8 -->
<g id="edge6" class="edge">
<title>3--8</title>
<path fill="none" stroke="#000000" d="M765.8026,-962.3276C811.3698,-930.1624 927.3002,-848.3292 972.9334,-816.1176"/>
<text text-anchor="middle" x="858.868" y="-893.4226" font-family="Times,serif" font-size="14.00" fill="#000000">358</text>
</g>
<!-- 10 -->
<g id="node13" class="node">
<title>10</title>
<ellipse fill="none" stroke="#000000" cx="833.4" cy="-745.2" rx="27" ry="18"/>
<text text-anchor="middle" x="833.4" y="-741" font-family="Times,serif" font-size="14.00" fill="#000000">10</text>
</g>
<!-- 3&#45;&#45;10 -->
<g id="edge12" class="edge">
<title>3--10</title>
<path fill="none" stroke="#000000" d="M753.6362,-957.9034C769.7188,-915.0166 810.6354,-805.9057 826.7412,-762.9568"/>
<text text-anchor="middle" x="779.6887" y="-864.6301" font-family="Times,serif" font-size="14.00" fill="#000000">232</text>
</g>
<!-- 14 -->
<g id="node8" class="node">
<title>14</title>
<ellipse fill="none" stroke="#000000" cx="919.8" cy="-630" rx="27" ry="18"/>
<text text-anchor="middle" x="919.8" y="-625.8" font-family="Times,serif" font-size="14.00" fill="#000000">14</text>
</g>
<!-- 8&#45;&#45;14 -->
<g id="edge7" class="edge">
<title>8--14</title>
<path fill="none" stroke="#000000" d="M984.5,-785.2801C970.7002,-752.1604 940.9341,-680.7217 927.1193,-647.5663"/>
<text text-anchor="middle" x="945.3097" y="-720.6232" font-family="Times,serif" font-size="14.00" fill="#000000">198</text>
</g>
<!-- 8&#45;&#45;10 -->
<g id="edge13" class="edge">
<title>8--10</title>
<path fill="none" stroke="#000000" d="M968.0859,-794.1767C938.2243,-783.3179 887.2141,-764.7688 857.2762,-753.8822"/>
<text text-anchor="middle" x="905.6811" y="-778.2295" font-family="Times,serif" font-size="14.00" fill="#000000">94</text>
</g>
<!-- 23 -->
<g id="node9" class="node">
<title>23</title>
<ellipse fill="none" stroke="#000000" cx="991.8" cy="-414" rx="27" ry="18"/>
<text text-anchor="middle" x="991.8" y="-409.8" font-family="Times,serif" font-size="14.00" fill="#000000">23</text>
</g>
<!-- 14&#45;&#45;23 -->
<g id="edge8" class="edge">
<title>14--23</title>
<path fill="none" stroke="#000000" d="M925.6921,-612.3238C939.227,-571.7191 972.4116,-472.1653 985.9275,-431.6175"/>
<text text-anchor="middle" x="945.3098" y="-526.1706" font-family="Times,serif" font-size="14.00" fill="#000000">212</text>
</g>
<!-- 27 -->
<g id="node10" class="node">
<title>27</title>
<ellipse fill="none" stroke="#000000" cx="977.4" cy="-313.2" rx="27" ry="18"/>
<text text-anchor="middle" x="977.4" y="-309" font-family="Times,serif" font-size="14.00" fill="#000000">27</text>
</g>
<!-- 23&#45;&#45;27 -->
<g id="edge9" class="edge">
<title>23--27</title>
<path fill="none" stroke="#000000" d="M989.2256,-395.979C986.6207,-377.7447 982.615,-349.7047 980.0007,-331.4049"/>
<text text-anchor="middle" x="977.6131" y="-367.8919" font-family="Times,serif" font-size="14.00" fill="#000000">52</text>
</g>
<!-- 31 -->
<g id="node11" class="node">
<title>31</title>
<ellipse fill="none" stroke="#000000" cx="934.2" cy="-111.6" rx="27" ry="18"/>
<text text-anchor="middle" x="934.2" y="-107.4" font-family="Times,serif" font-size="14.00" fill="#000000">31</text>
</g>
<!-- 27&#45;&#45;31 -->
<g id="edge10" class="edge">
<title>27--31</title>
<path fill="none" stroke="#000000" d="M973.5663,-295.3093C965.3683,-257.0523 946.2154,-167.6719 938.0251,-129.4505"/>
<text text-anchor="middle" x="945.2957" y="-216.5799" font-family="Times,serif" font-size="14.00" fill="#000000">262</text>
</g>
<!-- 28 -->
<g id="node16" class="node">
<title>28</title>
<ellipse fill="none" stroke="#000000" cx="790.2" cy="-298.8" rx="27" ry="18"/>
<text text-anchor="middle" x="790.2" y="-294.6" font-family="Times,serif" font-size="14.00" fill="#000000">28</text>
</g>
<!-- 27&#45;&#45;28 -->
<g id="edge19" class="edge">
<title>27--28</title>
<path fill="none" stroke="#000000" d="M950.1795,-311.1061C914.5863,-308.3682 852.6084,-303.6006 817.1496,-300.873"/>
<text text-anchor="middle" x="873.1646" y="-310.1896" font-family="Times,serif" font-size="14.00" fill="#000000">140</text>
</g>
<!-- 35 -->
<g id="node12" class="node">
<title>35</title>
<ellipse fill="none" stroke="#000000" cx="1020.6" cy="-18" rx="27" ry="18"/>
<text text-anchor="middle" x="1020.6" y="-13.8" font-family="Times,serif" font-size="14.00" fill="#000000">35</text>
</g>
<!-- 31&#45;&#45;35 -->
<g id="edge11" class="edge">
<title>31--35</title>
<path fill="none" stroke="#000000" d="M948.4672,-96.1438C964.4757,-78.8013 990.2944,-50.831 1006.3116,-33.4791"/>
<text text-anchor="middle" x="966.8894" y="-69.0115" font-family="Times,serif" font-size="14.00" fill="#000000">133</text>
</g>
<!-- 32 -->
<g id="node17" class="node">
<title>32</title>
<ellipse fill="none" stroke="#000000" cx="775.8" cy="-82.8" rx="27" ry="18"/>
<text text-anchor="middle" x="775.8" y="-78.6" font-family="Times,serif" font-size="14.00" fill="#000000">32</text>
</g>
<!-- 31&#45;&#45;32 -->
<g id="edge21" class="edge">
<title>31--32</title>
<path fill="none" stroke="#000000" d="M908.0435,-106.8442C878.6945,-101.5081 831.3602,-92.9018 801.9954,-87.5628"/>
<text text-anchor="middle" x="844.5194" y="-101.4035" font-family="Times,serif" font-size="14.00" fill="#000000">110</text>
</g>
<!-- 12 -->
<g id="node14" class="node">
<title>12</title>
<ellipse fill="none" stroke="#000000" cx="804.6" cy="-644.4" rx="27" ry="18"/>
<text text-anchor="middle" x="804.6" y="-640.2" font-family="Times,serif" font-size="14.00" fill="#000000">12</text>
</g>
<!-- 10&#45;&#45;12 -->
<g id="edge14" class="edge">
<title>10--12</title>
<path fill="none" stroke="#000000" d="M828.2511,-727.179C823.009,-708.8314 814.9303,-680.556 809.7043,-662.265"/>
<text text-anchor="middle" x="811.9777" y="-698.922" font-family="Times,serif" font-size="14.00" fill="#000000">90</text>
</g>
<!-- 10&#45;&#45;11 -->
<g id="edge23" class="edge">
<title>10--11</title>
<path fill="none" stroke="#000000" d="M806.4802,-743.4053C764.9758,-740.6384 685.8229,-735.3615 644.319,-732.5946"/>
<text text-anchor="middle" x="714.8996" y="-742.2" font-family="Times,serif" font-size="14.00" fill="#000000">160</text>
</g>
<!-- 12&#45;&#45;14 -->
<g id="edge15" class="edge">
<title>12--14</title>
<path fill="none" stroke="#000000" d="M831.3187,-641.0601C849.9296,-638.7338 874.6471,-635.6441 893.2262,-633.3217"/>
<text text-anchor="middle" x="855.2724" y="-641.3909" font-family="Times,serif" font-size="14.00" fill="#000000">62</text>
</g>
<!-- 22 -->
<g id="node15" class="node">
<title>22</title>
<ellipse fill="none" stroke="#000000" cx="804.6" cy="-457.2" rx="27" ry="18"/>
<text text-anchor="middle" x="804.6" y="-453" font-family="Times,serif" font-size="14.00" fill="#000000">22</text>
</g>
<!-- 12&#45;&#45;22 -->
<g id="edge16" class="edge">
<title>12--22</title>
<path fill="none" stroke="#000000" d="M804.6,-626.1096C804.6,-590.2293 804.6,-511.0064 804.6,-475.289"/>
<text text-anchor="middle" x="794.1" y="-554.8993" font-family="Times,serif" font-size="14.00" fill="#000000">178</text>
</g>
<!-- 16 -->
<g id="node19" class="node">
<title>16</title>
<ellipse fill="none" stroke="#000000" cx="559.8" cy="-615.6" rx="27" ry="18"/>
<text text-anchor="middle" x="559.8" y="-611.4" font-family="Times,serif" font-size="14.00" fill="#000000">16</text>
</g>
<!-- 12&#45;&#45;16 -->
<g id="edge25" class="edge">
<title>12--16</title>
<path fill="none" stroke="#000000" d="M777.9361,-641.2631C730.8467,-635.7231 633.497,-624.2702 586.431,-618.733"/>
<text text-anchor="middle" x="671.6836" y="-634.1981" font-family="Times,serif" font-size="14.00" fill="#000000">198</text>
</g>
<!-- 22&#45;&#45;23 -->
<g id="edge17" class="edge">
<title>22--23</title>
<path fill="none" stroke="#000000" d="M830.2368,-451.2838C865.9852,-443.0342 930.43,-428.1623 966.1731,-419.9139"/>
<text text-anchor="middle" x="887.705" y="-439.7988" font-family="Times,serif" font-size="14.00" fill="#000000">180</text>
</g>
<!-- 22&#45;&#45;28 -->
<g id="edge18" class="edge">
<title>22--28</title>
<path fill="none" stroke="#000000" d="M802.9481,-439.0295C800.1852,-408.6372 794.6565,-347.8218 791.877,-317.2465"/>
<text text-anchor="middle" x="790.4125" y="-382.338" font-family="Times,serif" font-size="14.00" fill="#000000">64</text>
</g>
<!-- 28&#45;&#45;32 -->
<g id="edge20" class="edge">
<title>28--32</title>
<path fill="none" stroke="#000000" d="M788.997,-280.7555C786.2865,-240.0967 779.7266,-141.6988 777.0097,-100.945"/>
<text text-anchor="middle" x="772.5034" y="-195.0503" font-family="Times,serif" font-size="14.00" fill="#000000">228</text>
</g>
<!-- 11&#45;&#45;16 -->
<g id="edge24" class="edge">
<title>11--16</title>
<path fill="none" stroke="#000000" d="M608.6518,-713.3036C597.7627,-691.5253 579.2812,-654.5624 568.4418,-632.8836"/>
<text text-anchor="middle" x="581.5468" y="-677.2936" font-family="Times,serif" font-size="14.00" fill="#000000">64</text>
</g>
<!-- 18 -->
<g id="node20" class="node">
<title>18</title>
<ellipse fill="none" stroke="#000000" cx="588.6" cy="-486" rx="27" ry="18"/>
<text text-anchor="middle" x="588.6" y="-481.8" font-family="Times,serif" font-size="14.00" fill="#000000">18</text>
</g>
<!-- 16&#45;&#45;18 -->
<g id="edge26" class="edge">
<title>16--18</title>
<path fill="none" stroke="#000000" d="M563.8045,-597.5797C569.3068,-572.8192 579.1451,-528.547 584.6295,-503.8673"/>
<text text-anchor="middle" x="563.717" y="-554.9235" font-family="Times,serif" font-size="14.00" fill="#000000">106</text>
</g>
<!-- 17 -->
<g id="node24" class="node">
<title>17</title>
<ellipse fill="none" stroke="#000000" cx="444.6" cy="-558" rx="27" ry="18"/>
<text text-anchor="middle" x="444.6" y="-553.8" font-family="Times,serif" font-size="14.00" fill="#000000">17</text>
</g>
<!-- 16&#45;&#45;17 -->
<g id="edge35" class="edge">
<title>16--17</title>
<path fill="none" stroke="#000000" d="M538.1318,-604.7659C517.6662,-594.5331 487.1243,-579.2621 466.5628,-568.9814"/>
<text text-anchor="middle" x="495.3473" y="-591.0736" font-family="Times,serif" font-size="14.00" fill="#000000">72</text>
</g>
<!-- 18&#45;&#45;22 -->
<g id="edge27" class="edge">
<title>18--22</title>
<path fill="none" stroke="#000000" d="M615.0858,-482.4685C656.5421,-476.941 736.3083,-466.3055 777.8975,-460.7603"/>
<text text-anchor="middle" x="685.9917" y="-475.8144" font-family="Times,serif" font-size="14.00" fill="#000000">194</text>
</g>
<!-- 26 -->
<g id="node21" class="node">
<title>26</title>
<ellipse fill="none" stroke="#000000" cx="559.8" cy="-313.2" rx="27" ry="18"/>
<text text-anchor="middle" x="559.8" y="-309" font-family="Times,serif" font-size="14.00" fill="#000000">26</text>
</g>
<!-- 18&#45;&#45;26 -->
<g id="edge28" class="edge">
<title>18--26</title>
<path fill="none" stroke="#000000" d="M585.5723,-467.834C580.0266,-434.5597 568.3025,-364.2152 562.7871,-331.1226"/>
<text text-anchor="middle" x="563.6797" y="-403.6783" font-family="Times,serif" font-size="14.00" fill="#000000">116</text>
</g>
<!-- 21 -->
<g id="node25" class="node">
<title>21</title>
<ellipse fill="none" stroke="#000000" cx="430.2" cy="-457.2" rx="27" ry="18"/>
<text text-anchor="middle" x="430.2" y="-453" font-family="Times,serif" font-size="14.00" fill="#000000">21</text>
</g>
<!-- 18&#45;&#45;21 -->
<g id="edge37" class="edge">
<title>18--21</title>
<path fill="none" stroke="#000000" d="M562.4435,-481.2443C533.0945,-475.9081 485.7602,-467.3018 456.3954,-461.9628"/>
<text text-anchor="middle" x="498.9194" y="-475.8035" font-family="Times,serif" font-size="14.00" fill="#000000">138</text>
</g>
<!-- 26&#45;&#45;28 -->
<g id="edge29" class="edge">
<title>26--28</title>
<path fill="none" stroke="#000000" d="M587.1347,-311.4916C631.5964,-308.7127 719.0499,-303.2469 763.2574,-300.4839"/>
<text text-anchor="middle" x="664.696" y="-310.1877" font-family="Times,serif" font-size="14.00" fill="#000000">190</text>
</g>
<!-- 30 -->
<g id="node22" class="node">
<title>30</title>
<ellipse fill="none" stroke="#000000" cx="574.2" cy="-126" rx="27" ry="18"/>
<text text-anchor="middle" x="574.2" y="-121.8" font-family="Times,serif" font-size="14.00" fill="#000000">30</text>
</g>
<!-- 26&#45;&#45;30 -->
<g id="edge30" class="edge">
<title>26--30</title>
<path fill="none" stroke="#000000" d="M561.207,-294.9096C563.967,-259.0293 570.061,-179.8065 572.8085,-144.089"/>
<text text-anchor="middle" x="556.5077" y="-223.6993" font-family="Times,serif" font-size="14.00" fill="#000000">156</text>
</g>
<!-- 30&#45;&#45;32 -->
<g id="edge31" class="edge">
<title>30--32</title>
<path fill="none" stroke="#000000" d="M600.143,-120.4408C638.8528,-112.1458 711.3048,-96.6204 749.9566,-88.3378"/>
<text text-anchor="middle" x="664.5498" y="-108.5893" font-family="Times,serif" font-size="14.00" fill="#000000">242</text>
</g>
<!-- 33 -->
<g id="node27" class="node">
<title>33</title>
<ellipse fill="none" stroke="#000000" cx="444.6" cy="-54" rx="27" ry="18"/>
<text text-anchor="middle" x="444.6" y="-49.8" font-family="Times,serif" font-size="14.00" fill="#000000">33</text>
</g>
<!-- 30&#45;&#45;33 -->
<g id="edge41" class="edge">
<title>30--33</title>
<path fill="none" stroke="#000000" d="M553.3775,-114.432C529.1928,-100.996 489.5335,-78.9631 465.3708,-65.5393"/>
<text text-anchor="middle" x="498.8742" y="-94.1856" font-family="Times,serif" font-size="14.00" fill="#000000">144</text>
</g>
<!-- 7&#45;&#45;11 -->
<g id="edge33" class="edge">
<title>7--11</title>
<path fill="none" stroke="#000000" d="M495.2705,-791.8647C522.4934,-778.2533 568.697,-755.1515 595.7955,-741.6022"/>
<text text-anchor="middle" x="535.033" y="-770.9335" font-family="Times,serif" font-size="14.00" fill="#000000">110</text>
</g>
<!-- 7&#45;&#45;17 -->
<g id="edge34" class="edge">
<title>7--17</title>
<path fill="none" stroke="#000000" d="M471.2823,-784.7993C465.9563,-739.5283 452.0502,-621.3264 446.7208,-576.0271"/>
<text text-anchor="middle" x="448.5016" y="-684.6132" font-family="Times,serif" font-size="14.00" fill="#000000">150</text>
</g>
<!-- 17&#45;&#45;21 -->
<g id="edge36" class="edge">
<title>17--21</title>
<path fill="none" stroke="#000000" d="M442.0256,-539.979C439.4207,-521.7447 435.415,-493.7047 432.8007,-475.4048"/>
<text text-anchor="middle" x="430.4131" y="-511.8919" font-family="Times,serif" font-size="14.00" fill="#000000">44</text>
</g>
<!-- 25 -->
<g id="node26" class="node">
<title>25</title>
<ellipse fill="none" stroke="#000000" cx="473.4" cy="-313.2" rx="27" ry="18"/>
<text text-anchor="middle" x="473.4" y="-309" font-family="Times,serif" font-size="14.00" fill="#000000">25</text>
</g>
<!-- 21&#45;&#45;25 -->
<g id="edge38" class="edge">
<title>21--25</title>
<path fill="none" stroke="#000000" d="M435.4972,-439.5428C443.7884,-411.9053 459.7417,-358.7278 468.0595,-331.0016"/>
<text text-anchor="middle" x="441.2783" y="-389.4722" font-family="Times,serif" font-size="14.00" fill="#000000">114</text>
</g>
<!-- 25&#45;&#45;26 -->
<g id="edge39" class="edge">
<title>25--26</title>
<path fill="none" stroke="#000000" d="M500.7375,-313.2C510.9218,-313.2 522.472,-313.2 532.6403,-313.2"/>
<text text-anchor="middle" x="509.6889" y="-317.4" font-family="Times,serif" font-size="14.00" fill="#000000">80</text>
</g>
<!-- 25&#45;&#45;33 -->
<g id="edge40" class="edge">
<title>25--33</title>
<path fill="none" stroke="#000000" d="M471.3748,-294.9736C466.0869,-247.3822 451.9083,-119.775 446.6229,-72.2063"/>
<text text-anchor="middle" x="448.4989" y="-187.7899" font-family="Times,serif" font-size="14.00" fill="#000000">232</text>
</g>
<!-- 29 -->
<g id="node31" class="node">
<title>29</title>
<ellipse fill="none" stroke="#000000" cx="271.8" cy="-255.6" rx="27" ry="18"/>
<text text-anchor="middle" x="271.8" y="-251.4" font-family="Times,serif" font-size="14.00" fill="#000000">29</text>
</g>
<!-- 25&#45;&#45;29 -->
<g id="edge49" class="edge">
<title>25--29</title>
<path fill="none" stroke="#000000" d="M448.2748,-306.0214C409.5374,-294.9535 335.6613,-273.8461 296.9244,-262.7784"/>
<text text-anchor="middle" x="362.0996" y="-288.5999" font-family="Times,serif" font-size="14.00" fill="#000000">164</text>
</g>
<!-- 34 -->
<g id="node32" class="node">
<title>34</title>
<ellipse fill="none" stroke="#000000" cx="286.2" cy="-39.6" rx="27" ry="18"/>
<text text-anchor="middle" x="286.2" y="-35.4" font-family="Times,serif" font-size="14.00" fill="#000000">34</text>
</g>
<!-- 33&#45;&#45;34 -->
<g id="edge51" class="edge">
<title>33--34</title>
<path fill="none" stroke="#000000" d="M417.7296,-51.5572C388.6018,-48.9092 342.3815,-44.7074 313.2022,-42.0547"/>
<text text-anchor="middle" x="354.9659" y="-51.006" font-family="Times,serif" font-size="14.00" fill="#000000">124</text>
</g>
<!-- 6&#45;&#45;7 -->
<g id="edge43" class="edge">
<title>6--7</title>
<path fill="none" stroke="#000000" d="M356.4853,-802.8C382.0673,-802.8 420.2446,-802.8 445.9466,-802.8"/>
<text text-anchor="middle" x="390.7159" y="-807" font-family="Times,serif" font-size="14.00" fill="#000000">112</text>
</g>
<!-- 13 -->
<g id="node29" class="node">
<title>13</title>
<ellipse fill="none" stroke="#000000" cx="271.8" cy="-630" rx="27" ry="18"/>
<text text-anchor="middle" x="271.8" y="-625.8" font-family="Times,serif" font-size="14.00" fill="#000000">13</text>
</g>
<!-- 6&#45;&#45;13 -->
<g id="edge44" class="edge">
<title>6--13</title>
<path fill="none" stroke="#000000" d="M323.4527,-784.9582C312.3865,-751.7594 288.7566,-680.8699 277.7149,-647.7447"/>
<text text-anchor="middle" x="290.0838" y="-720.5515" font-family="Times,serif" font-size="14.00" fill="#000000">184</text>
</g>
<!-- 6&#45;&#45;9 -->
<g id="edge53" class="edge">
<title>6--9</title>
<path fill="none" stroke="#000000" d="M303.2021,-798.1768C256.2084,-789.8838 158.1046,-772.5714 110.9795,-764.2552"/>
<text text-anchor="middle" x="196.5908" y="-785.416" font-family="Times,serif" font-size="14.00" fill="#000000">240</text>
</g>
<!-- 13&#45;&#45;17 -->
<g id="edge45" class="edge">
<title>13--17</title>
<path fill="none" stroke="#000000" d="M294.7465,-620.4389C327.7969,-606.6679 388.4555,-581.3935 421.5586,-567.6006"/>
<text text-anchor="middle" x="347.6526" y="-598.2198" font-family="Times,serif" font-size="14.00" fill="#000000">146</text>
</g>
<!-- 20 -->
<g id="node30" class="node">
<title>20</title>
<ellipse fill="none" stroke="#000000" cx="300.6" cy="-457.2" rx="27" ry="18"/>
<text text-anchor="middle" x="300.6" y="-453" font-family="Times,serif" font-size="14.00" fill="#000000">20</text>
</g>
<!-- 13&#45;&#45;20 -->
<g id="edge46" class="edge">
<title>13--20</title>
<path fill="none" stroke="#000000" d="M274.8277,-611.834C280.3734,-578.5597 292.0975,-508.2152 297.6129,-475.1226"/>
<text text-anchor="middle" x="275.7203" y="-547.6783" font-family="Times,serif" font-size="14.00" fill="#000000">104</text>
</g>
<!-- 15 -->
<g id="node34" class="node">
<title>15</title>
<ellipse fill="none" stroke="#000000" cx="55.8" cy="-615.6" rx="27" ry="18"/>
<text text-anchor="middle" x="55.8" y="-611.4" font-family="Times,serif" font-size="14.00" fill="#000000">15</text>
</g>
<!-- 13&#45;&#45;15 -->
<g id="edge55" class="edge">
<title>13--15</title>
<path fill="none" stroke="#000000" d="M244.8802,-628.2053C203.3758,-625.4384 124.2229,-620.1615 82.719,-617.3946"/>
<text text-anchor="middle" x="153.2996" y="-627" font-family="Times,serif" font-size="14.00" fill="#000000">212</text>
</g>
<!-- 20&#45;&#45;21 -->
<g id="edge47" class="edge">
<title>20--21</title>
<path fill="none" stroke="#000000" d="M327.7684,-457.2C349.8873,-457.2 380.9582,-457.2 403.0674,-457.2"/>
<text text-anchor="middle" x="358.4179" y="-461.4" font-family="Times,serif" font-size="14.00" fill="#000000">58</text>
</g>
<!-- 20&#45;&#45;29 -->
<g id="edge48" class="edge">
<title>20--29</title>
<path fill="none" stroke="#000000" d="M297.9934,-438.9538C292.5102,-400.5714 279.8398,-311.8785 274.38,-273.6597"/>
<text text-anchor="middle" x="275.6867" y="-360.5067" font-family="Times,serif" font-size="14.00" fill="#000000">164</text>
</g>
<!-- 29&#45;&#45;34 -->
<g id="edge50" class="edge">
<title>29--34</title>
<path fill="none" stroke="#000000" d="M273.003,-237.5555C275.7136,-196.8967 282.2734,-98.4988 284.9903,-57.745"/>
<text text-anchor="middle" x="268.4967" y="-151.8503" font-family="Times,serif" font-size="14.00" fill="#000000">184</text>
</g>
<!-- 9&#45;&#45;15 -->
<g id="edge54" class="edge">
<title>9--15</title>
<path fill="none" stroke="#000000" d="M81.0107,-741.6534C75.4919,-714.0592 64.9805,-661.5026 59.4346,-633.7727"/>
<text text-anchor="middle" x="63.2226" y="-691.9131" font-family="Times,serif" font-size="14.00" fill="#000000">84</text>
</g>
<!-- 19 -->
<g id="node35" class="node">
<title>19</title>
<ellipse fill="none" stroke="#000000" cx="113.4" cy="-457.2" rx="27" ry="18"/>
<text text-anchor="middle" x="113.4" y="-453" font-family="Times,serif" font-size="14.00" fill="#000000">19</text>
</g>
<!-- 15&#45;&#45;19 -->
<g id="edge56" class="edge">
<title>15--19</title>
<path fill="none" stroke="#000000" d="M62.1843,-598.0432C73.2562,-567.5955 95.8953,-505.3378 106.9871,-474.8354"/>
<text text-anchor="middle" x="74.0857" y="-540.6393" font-family="Times,serif" font-size="14.00" fill="#000000">154</text>
</g>
<!-- 19&#45;&#45;20 -->
<g id="edge57" class="edge">
<title>19--20</title>
<path fill="none" stroke="#000000" d="M140.6205,-457.2C176.1123,-457.2 237.8386,-457.2 273.3467,-457.2"/>
<text text-anchor="middle" x="196.4836" y="-461.4" font-family="Times,serif" font-size="14.00" fill="#000000">194</text>
</g>
<!-- 24 -->
<g id="node36" class="node">
<title>24</title>
<ellipse fill="none" stroke="#000000" cx="142.2" cy="-313.2" rx="27" ry="18"/>
<text text-anchor="middle" x="142.2" y="-309" font-family="Times,serif" font-size="14.00" fill="#000000">24</text>
</g>
<!-- 19&#45;&#45;24 -->
<g id="edge58" class="edge">
<title>19--24</title>
<path fill="none" stroke="#000000" d="M116.9893,-439.2534C122.5081,-411.6592 133.0195,-359.1026 138.5654,-331.3727"/>
<text text-anchor="middle" x="117.2774" y="-389.5131" font-family="Times,serif" font-size="14.00" fill="#000000">164</text>
</g>
<!-- 24&#45;&#45;29 -->
<g id="edge59" class="edge">
<title>24--29</title>
<path fill="none" stroke="#000000" d="M164.7746,-303.1668C188.4168,-292.6592 225.3414,-276.2483 249.0493,-265.7114"/>
<text text-anchor="middle" x="199.9119" y="-288.6391" font-family="Times,serif" font-size="14.00" fill="#000000">86</text>
</g>
<!-- 24&#45;&#45;34 -->
<g id="edge60" class="edge">
<title>24--34</title>
<path fill="none" stroke="#000000" d="M151.2078,-296.0851C177.0683,-246.9502 251.3394,-105.8352 277.1956,-56.7084"/>
<text text-anchor="middle" x="203.7017" y="-180.5968" font-family="Times,serif" font-size="14.00" fill="#000000">570</text>
</g>
</g>
</svg>